<mxfile host="app.diagrams.net" modified="2023-10-21T16:08:58.648Z" agent="Mozilla/5.0 (Windows NT 10.0; Win64; x64) AppleWebKit/537.36 (KHTML, like Gecko) Chrome/118.0.0.0 Safari/537.36" etag="jhAWMko6ll5VV8xbn1kc" version="21.7.5" type="github">
  <diagram name="Page-1" id="D-c7iAPdVL_e8w4V4wIe">
    <mxGraphModel dx="528" dy="503" grid="0" gridSize="10" guides="1" tooltips="1" connect="1" arrows="1" fold="1" page="1" pageScale="1" pageWidth="827" pageHeight="1169" math="0" shadow="0">
      <root>
        <mxCell id="0" />
        <mxCell id="1" parent="0" />
        <mxCell id="BKKdW5sMqbaFEsKk65IG-1" value="Data Set" style="rounded=0;whiteSpace=wrap;html=1;fillColor=#dae8fc;strokeColor=#6c8ebf;" vertex="1" parent="1">
          <mxGeometry x="320" y="40" width="164" height="40" as="geometry" />
        </mxCell>
        <mxCell id="BKKdW5sMqbaFEsKk65IG-2" value="Apply ML Algorithms on selected Data" style="rounded=0;whiteSpace=wrap;html=1;fillColor=#fff2cc;strokeColor=#d6b656;" vertex="1" parent="1">
          <mxGeometry x="320" y="200" width="164" height="40" as="geometry" />
        </mxCell>
        <mxCell id="BKKdW5sMqbaFEsKk65IG-3" value="Splitting the Data Set" style="rounded=0;whiteSpace=wrap;html=1;fillColor=#dae8fc;strokeColor=#6c8ebf;" vertex="1" parent="1">
          <mxGeometry x="320" y="120" width="164" height="40" as="geometry" />
        </mxCell>
        <mxCell id="BKKdW5sMqbaFEsKk65IG-5" value="Apply MSE(Mean Square Error" style="rounded=0;whiteSpace=wrap;html=1;fillColor=#f8cecc;strokeColor=#b85450;" vertex="1" parent="1">
          <mxGeometry x="320" y="360" width="164" height="40" as="geometry" />
        </mxCell>
        <mxCell id="BKKdW5sMqbaFEsKk65IG-6" value="Graphical Representation of Actual and Predicted Features&amp;nbsp;" style="rounded=0;whiteSpace=wrap;html=1;fillColor=#d5e8d4;strokeColor=#82b366;" vertex="1" parent="1">
          <mxGeometry x="320" y="440" width="164" height="60" as="geometry" />
        </mxCell>
        <mxCell id="BKKdW5sMqbaFEsKk65IG-7" value="Predict Future Values" style="rounded=0;whiteSpace=wrap;html=1;fillColor=#ffe6cc;strokeColor=#d79b00;" vertex="1" parent="1">
          <mxGeometry x="320" y="280" width="164" height="40" as="geometry" />
        </mxCell>
        <mxCell id="BKKdW5sMqbaFEsKk65IG-8" value="" style="endArrow=classic;html=1;rounded=0;entryX=0.5;entryY=0;entryDx=0;entryDy=0;exitX=0.5;exitY=1;exitDx=0;exitDy=0;" edge="1" parent="1" source="BKKdW5sMqbaFEsKk65IG-1" target="BKKdW5sMqbaFEsKk65IG-3">
          <mxGeometry width="50" height="50" relative="1" as="geometry">
            <mxPoint x="430" y="100" as="sourcePoint" />
            <mxPoint x="440" y="350" as="targetPoint" />
          </mxGeometry>
        </mxCell>
        <mxCell id="BKKdW5sMqbaFEsKk65IG-9" value="" style="endArrow=classic;html=1;rounded=0;exitX=0.5;exitY=1;exitDx=0;exitDy=0;entryX=0.5;entryY=0;entryDx=0;entryDy=0;" edge="1" parent="1">
          <mxGeometry width="50" height="50" relative="1" as="geometry">
            <mxPoint x="401.5" y="160" as="sourcePoint" />
            <mxPoint x="401.5" y="200" as="targetPoint" />
          </mxGeometry>
        </mxCell>
        <mxCell id="BKKdW5sMqbaFEsKk65IG-12" value="" style="endArrow=classic;html=1;rounded=0;exitX=0.5;exitY=1;exitDx=0;exitDy=0;entryX=0.5;entryY=0;entryDx=0;entryDy=0;" edge="1" parent="1" source="BKKdW5sMqbaFEsKk65IG-2" target="BKKdW5sMqbaFEsKk65IG-7">
          <mxGeometry width="50" height="50" relative="1" as="geometry">
            <mxPoint x="422" y="100" as="sourcePoint" />
            <mxPoint x="422" y="140" as="targetPoint" />
          </mxGeometry>
        </mxCell>
        <mxCell id="BKKdW5sMqbaFEsKk65IG-13" value="" style="endArrow=classic;html=1;rounded=0;exitX=0.5;exitY=1;exitDx=0;exitDy=0;entryX=0.5;entryY=0;entryDx=0;entryDy=0;" edge="1" parent="1" source="BKKdW5sMqbaFEsKk65IG-7" target="BKKdW5sMqbaFEsKk65IG-5">
          <mxGeometry width="50" height="50" relative="1" as="geometry">
            <mxPoint x="432" y="110" as="sourcePoint" />
            <mxPoint x="432" y="150" as="targetPoint" />
          </mxGeometry>
        </mxCell>
        <mxCell id="BKKdW5sMqbaFEsKk65IG-14" value="" style="endArrow=classic;html=1;rounded=0;exitX=0.5;exitY=1;exitDx=0;exitDy=0;entryX=0.5;entryY=0;entryDx=0;entryDy=0;" edge="1" parent="1" source="BKKdW5sMqbaFEsKk65IG-5" target="BKKdW5sMqbaFEsKk65IG-6">
          <mxGeometry width="50" height="50" relative="1" as="geometry">
            <mxPoint x="442" y="120" as="sourcePoint" />
            <mxPoint x="442" y="160" as="targetPoint" />
          </mxGeometry>
        </mxCell>
        <mxCell id="BKKdW5sMqbaFEsKk65IG-15" value="Features (F1, F2, F3...Fn)" style="rounded=0;whiteSpace=wrap;html=1;fillColor=#dae8fc;strokeColor=#6c8ebf;" vertex="1" parent="1">
          <mxGeometry x="288" y="581" width="228" height="40" as="geometry" />
        </mxCell>
        <mxCell id="BKKdW5sMqbaFEsKk65IG-16" value="Split&amp;nbsp; Data Set for Training and Prediction" style="rounded=0;whiteSpace=wrap;html=1;fillColor=#dae8fc;strokeColor=#6c8ebf;" vertex="1" parent="1">
          <mxGeometry x="288" y="663" width="228" height="40" as="geometry" />
        </mxCell>
        <mxCell id="BKKdW5sMqbaFEsKk65IG-17" value="Train Data Set with KNN" style="rounded=0;whiteSpace=wrap;html=1;fillColor=#e1d5e7;strokeColor=#9673a6;" vertex="1" parent="1">
          <mxGeometry x="288" y="745" width="228" height="40" as="geometry" />
        </mxCell>
        <mxCell id="BKKdW5sMqbaFEsKk65IG-19" value="Predict Future Values of Features" style="rounded=0;whiteSpace=wrap;html=1;fillColor=#bac8d3;strokeColor=#23445d;" vertex="1" parent="1">
          <mxGeometry x="288" y="827" width="228" height="40" as="geometry" />
        </mxCell>
        <mxCell id="BKKdW5sMqbaFEsKk65IG-21" value="Apply MSE(Mean Square Error)" style="rounded=0;whiteSpace=wrap;html=1;fillColor=#fad9d5;strokeColor=#ae4132;" vertex="1" parent="1">
          <mxGeometry x="288" y="909" width="228" height="40" as="geometry" />
        </mxCell>
        <mxCell id="BKKdW5sMqbaFEsKk65IG-22" value="Graphical Representation of Actual and Predicted Features&amp;nbsp;" style="rounded=0;whiteSpace=wrap;html=1;fillColor=#d5e8d4;strokeColor=#82b366;" vertex="1" parent="1">
          <mxGeometry x="288" y="991" width="228" height="40" as="geometry" />
        </mxCell>
        <mxCell id="BKKdW5sMqbaFEsKk65IG-23" value="" style="endArrow=classic;html=1;rounded=0;exitX=0.5;exitY=1;exitDx=0;exitDy=0;entryX=0.5;entryY=0;entryDx=0;entryDy=0;" edge="1" parent="1">
          <mxGeometry width="50" height="50" relative="1" as="geometry">
            <mxPoint x="401.5" y="623" as="sourcePoint" />
            <mxPoint x="401.5" y="663" as="targetPoint" />
          </mxGeometry>
        </mxCell>
        <mxCell id="BKKdW5sMqbaFEsKk65IG-24" value="" style="endArrow=classic;html=1;rounded=0;exitX=0.5;exitY=1;exitDx=0;exitDy=0;entryX=0.5;entryY=0;entryDx=0;entryDy=0;" edge="1" parent="1">
          <mxGeometry width="50" height="50" relative="1" as="geometry">
            <mxPoint x="401.5" y="703" as="sourcePoint" />
            <mxPoint x="401.5" y="743" as="targetPoint" />
          </mxGeometry>
        </mxCell>
        <mxCell id="BKKdW5sMqbaFEsKk65IG-25" value="" style="endArrow=classic;html=1;rounded=0;exitX=0.5;exitY=1;exitDx=0;exitDy=0;entryX=0.5;entryY=0;entryDx=0;entryDy=0;" edge="1" parent="1">
          <mxGeometry width="50" height="50" relative="1" as="geometry">
            <mxPoint x="401.5" y="785" as="sourcePoint" />
            <mxPoint x="401.5" y="825" as="targetPoint" />
          </mxGeometry>
        </mxCell>
        <mxCell id="BKKdW5sMqbaFEsKk65IG-26" value="" style="endArrow=classic;html=1;rounded=0;exitX=0.5;exitY=1;exitDx=0;exitDy=0;entryX=0.5;entryY=0;entryDx=0;entryDy=0;" edge="1" parent="1">
          <mxGeometry width="50" height="50" relative="1" as="geometry">
            <mxPoint x="401.5" y="867" as="sourcePoint" />
            <mxPoint x="401.5" y="907" as="targetPoint" />
          </mxGeometry>
        </mxCell>
        <mxCell id="BKKdW5sMqbaFEsKk65IG-27" value="" style="endArrow=classic;html=1;rounded=0;exitX=0.5;exitY=1;exitDx=0;exitDy=0;entryX=0.5;entryY=0;entryDx=0;entryDy=0;" edge="1" parent="1">
          <mxGeometry width="50" height="50" relative="1" as="geometry">
            <mxPoint x="401.5" y="951" as="sourcePoint" />
            <mxPoint x="401.5" y="991" as="targetPoint" />
          </mxGeometry>
        </mxCell>
        <mxCell id="BKKdW5sMqbaFEsKk65IG-29" value="Dataset" style="rounded=0;whiteSpace=wrap;html=1;fillColor=#dae8fc;strokeColor=#6c8ebf;gradientColor=#7ea6e0;" vertex="1" parent="1">
          <mxGeometry x="319" y="1192" width="180" height="24" as="geometry" />
        </mxCell>
        <mxCell id="BKKdW5sMqbaFEsKk65IG-30" value="" style="endArrow=none;html=1;rounded=0;entryX=0.5;entryY=1;entryDx=0;entryDy=0;" edge="1" parent="1" target="BKKdW5sMqbaFEsKk65IG-29">
          <mxGeometry width="50" height="50" relative="1" as="geometry">
            <mxPoint x="408" y="1250" as="sourcePoint" />
            <mxPoint x="422" y="1116" as="targetPoint" />
          </mxGeometry>
        </mxCell>
        <mxCell id="BKKdW5sMqbaFEsKk65IG-31" value="" style="endArrow=none;html=1;rounded=0;" edge="1" parent="1">
          <mxGeometry width="50" height="50" relative="1" as="geometry">
            <mxPoint x="271" y="1252" as="sourcePoint" />
            <mxPoint x="556" y="1250" as="targetPoint" />
          </mxGeometry>
        </mxCell>
        <mxCell id="BKKdW5sMqbaFEsKk65IG-33" value="" style="ellipse;whiteSpace=wrap;html=1;aspect=fixed;fillColor=#d5e8d4;strokeColor=#82b366;gradientColor=#97d077;" vertex="1" parent="1">
          <mxGeometry x="245" y="1277" width="16" height="16" as="geometry" />
        </mxCell>
        <mxCell id="BKKdW5sMqbaFEsKk65IG-34" value="" style="ellipse;whiteSpace=wrap;html=1;aspect=fixed;fillColor=#fff2cc;strokeColor=#d6b656;gradientColor=#ffd966;" vertex="1" parent="1">
          <mxGeometry x="245" y="1302" width="16" height="16" as="geometry" />
        </mxCell>
        <mxCell id="BKKdW5sMqbaFEsKk65IG-35" value="" style="ellipse;whiteSpace=wrap;html=1;aspect=fixed;fillColor=#d5e8d4;strokeColor=#82b366;gradientColor=#97d077;" vertex="1" parent="1">
          <mxGeometry x="274" y="1298" width="16" height="16" as="geometry" />
        </mxCell>
        <mxCell id="BKKdW5sMqbaFEsKk65IG-36" value="" style="ellipse;whiteSpace=wrap;html=1;aspect=fixed;fillColor=#fff2cc;strokeColor=#d6b656;gradientColor=#ffd966;" vertex="1" parent="1">
          <mxGeometry x="222" y="1340" width="16" height="16" as="geometry" />
        </mxCell>
        <mxCell id="BKKdW5sMqbaFEsKk65IG-37" value="" style="ellipse;whiteSpace=wrap;html=1;aspect=fixed;direction=west;fillColor=#fff2cc;gradientColor=#ffd966;strokeColor=#d6b656;" vertex="1" parent="1">
          <mxGeometry x="181" y="1324" width="16" height="16" as="geometry" />
        </mxCell>
        <mxCell id="BKKdW5sMqbaFEsKk65IG-38" value="" style="ellipse;whiteSpace=wrap;html=1;aspect=fixed;fillColor=#fff2cc;strokeColor=#d6b656;gradientColor=#ffd966;" vertex="1" parent="1">
          <mxGeometry x="213" y="1298" width="16" height="16" as="geometry" />
        </mxCell>
        <mxCell id="BKKdW5sMqbaFEsKk65IG-39" value="" style="endArrow=none;html=1;rounded=0;entryX=0.5;entryY=1;entryDx=0;entryDy=0;" edge="1" parent="1" source="BKKdW5sMqbaFEsKk65IG-34" target="BKKdW5sMqbaFEsKk65IG-33">
          <mxGeometry width="50" height="50" relative="1" as="geometry">
            <mxPoint x="296" y="1381" as="sourcePoint" />
            <mxPoint x="346" y="1331" as="targetPoint" />
          </mxGeometry>
        </mxCell>
        <mxCell id="BKKdW5sMqbaFEsKk65IG-40" value="" style="endArrow=none;html=1;rounded=0;entryX=0;entryY=0.5;entryDx=0;entryDy=0;" edge="1" parent="1" source="BKKdW5sMqbaFEsKk65IG-38" target="BKKdW5sMqbaFEsKk65IG-33">
          <mxGeometry width="50" height="50" relative="1" as="geometry">
            <mxPoint x="296" y="1381" as="sourcePoint" />
            <mxPoint x="346" y="1331" as="targetPoint" />
          </mxGeometry>
        </mxCell>
        <mxCell id="BKKdW5sMqbaFEsKk65IG-41" value="" style="endArrow=none;html=1;rounded=0;entryX=1;entryY=0.5;entryDx=0;entryDy=0;" edge="1" parent="1" source="BKKdW5sMqbaFEsKk65IG-35" target="BKKdW5sMqbaFEsKk65IG-33">
          <mxGeometry width="50" height="50" relative="1" as="geometry">
            <mxPoint x="296" y="1381" as="sourcePoint" />
            <mxPoint x="346" y="1331" as="targetPoint" />
          </mxGeometry>
        </mxCell>
        <mxCell id="BKKdW5sMqbaFEsKk65IG-43" value="" style="endArrow=none;html=1;rounded=0;exitX=0;exitY=1;exitDx=0;exitDy=0;" edge="1" parent="1" source="BKKdW5sMqbaFEsKk65IG-37" target="BKKdW5sMqbaFEsKk65IG-38">
          <mxGeometry width="50" height="50" relative="1" as="geometry">
            <mxPoint x="200" y="1331" as="sourcePoint" />
            <mxPoint x="346" y="1331" as="targetPoint" />
          </mxGeometry>
        </mxCell>
        <mxCell id="BKKdW5sMqbaFEsKk65IG-44" value="" style="ellipse;whiteSpace=wrap;html=1;aspect=fixed;fillColor=#d5e8d4;strokeColor=#82b366;gradientColor=#97d077;" vertex="1" parent="1">
          <mxGeometry x="290" y="1334" width="16" height="16" as="geometry" />
        </mxCell>
        <mxCell id="BKKdW5sMqbaFEsKk65IG-45" value="" style="endArrow=none;html=1;rounded=0;entryX=1;entryY=0.5;entryDx=0;entryDy=0;" edge="1" parent="1" source="BKKdW5sMqbaFEsKk65IG-36" target="BKKdW5sMqbaFEsKk65IG-38">
          <mxGeometry width="50" height="50" relative="1" as="geometry">
            <mxPoint x="296" y="1381" as="sourcePoint" />
            <mxPoint x="346" y="1331" as="targetPoint" />
          </mxGeometry>
        </mxCell>
        <mxCell id="BKKdW5sMqbaFEsKk65IG-46" value="" style="endArrow=none;html=1;rounded=0;entryX=1;entryY=1;entryDx=0;entryDy=0;" edge="1" parent="1" source="BKKdW5sMqbaFEsKk65IG-44" target="BKKdW5sMqbaFEsKk65IG-35">
          <mxGeometry width="50" height="50" relative="1" as="geometry">
            <mxPoint x="296" y="1381" as="sourcePoint" />
            <mxPoint x="346" y="1331" as="targetPoint" />
          </mxGeometry>
        </mxCell>
        <mxCell id="BKKdW5sMqbaFEsKk65IG-50" value="" style="ellipse;whiteSpace=wrap;html=1;aspect=fixed;fillColor=#d5e8d4;gradientColor=#97d077;strokeColor=#82b366;" vertex="1" parent="1">
          <mxGeometry x="398" y="1286" width="16" height="16" as="geometry" />
        </mxCell>
        <mxCell id="BKKdW5sMqbaFEsKk65IG-51" value="" style="ellipse;whiteSpace=wrap;html=1;aspect=fixed;fillColor=#fff2cc;gradientColor=#ffd966;strokeColor=#d6b656;" vertex="1" parent="1">
          <mxGeometry x="398" y="1311" width="16" height="16" as="geometry" />
        </mxCell>
        <mxCell id="BKKdW5sMqbaFEsKk65IG-52" value="" style="ellipse;whiteSpace=wrap;html=1;aspect=fixed;fillColor=#fff2cc;gradientColor=#ffd966;strokeColor=#d6b656;" vertex="1" parent="1">
          <mxGeometry x="427" y="1307" width="16" height="16" as="geometry" />
        </mxCell>
        <mxCell id="BKKdW5sMqbaFEsKk65IG-53" value="" style="ellipse;whiteSpace=wrap;html=1;aspect=fixed;fillColor=#d5e8d4;gradientColor=#97d077;strokeColor=#82b366;" vertex="1" parent="1">
          <mxGeometry x="375" y="1349" width="16" height="16" as="geometry" />
        </mxCell>
        <mxCell id="BKKdW5sMqbaFEsKk65IG-54" value="" style="ellipse;whiteSpace=wrap;html=1;aspect=fixed;direction=west;fillColor=#fff2cc;gradientColor=#ffd966;strokeColor=#d6b656;" vertex="1" parent="1">
          <mxGeometry x="334" y="1333" width="16" height="16" as="geometry" />
        </mxCell>
        <mxCell id="BKKdW5sMqbaFEsKk65IG-55" value="" style="ellipse;whiteSpace=wrap;html=1;aspect=fixed;fillColor=#d5e8d4;gradientColor=#97d077;strokeColor=#82b366;" vertex="1" parent="1">
          <mxGeometry x="366" y="1307" width="16" height="16" as="geometry" />
        </mxCell>
        <mxCell id="BKKdW5sMqbaFEsKk65IG-56" value="" style="endArrow=none;html=1;rounded=0;entryX=0.5;entryY=1;entryDx=0;entryDy=0;" edge="1" source="BKKdW5sMqbaFEsKk65IG-51" target="BKKdW5sMqbaFEsKk65IG-50" parent="1">
          <mxGeometry width="50" height="50" relative="1" as="geometry">
            <mxPoint x="449" y="1390" as="sourcePoint" />
            <mxPoint x="499" y="1340" as="targetPoint" />
          </mxGeometry>
        </mxCell>
        <mxCell id="BKKdW5sMqbaFEsKk65IG-57" value="" style="endArrow=none;html=1;rounded=0;entryX=0;entryY=0.5;entryDx=0;entryDy=0;" edge="1" source="BKKdW5sMqbaFEsKk65IG-55" target="BKKdW5sMqbaFEsKk65IG-50" parent="1">
          <mxGeometry width="50" height="50" relative="1" as="geometry">
            <mxPoint x="449" y="1390" as="sourcePoint" />
            <mxPoint x="499" y="1340" as="targetPoint" />
          </mxGeometry>
        </mxCell>
        <mxCell id="BKKdW5sMqbaFEsKk65IG-58" value="" style="endArrow=none;html=1;rounded=0;entryX=1;entryY=0.5;entryDx=0;entryDy=0;" edge="1" source="BKKdW5sMqbaFEsKk65IG-52" target="BKKdW5sMqbaFEsKk65IG-50" parent="1">
          <mxGeometry width="50" height="50" relative="1" as="geometry">
            <mxPoint x="449" y="1390" as="sourcePoint" />
            <mxPoint x="499" y="1340" as="targetPoint" />
          </mxGeometry>
        </mxCell>
        <mxCell id="BKKdW5sMqbaFEsKk65IG-59" value="" style="endArrow=none;html=1;rounded=0;exitX=0;exitY=1;exitDx=0;exitDy=0;" edge="1" source="BKKdW5sMqbaFEsKk65IG-54" target="BKKdW5sMqbaFEsKk65IG-55" parent="1">
          <mxGeometry width="50" height="50" relative="1" as="geometry">
            <mxPoint x="353" y="1340" as="sourcePoint" />
            <mxPoint x="499" y="1340" as="targetPoint" />
          </mxGeometry>
        </mxCell>
        <mxCell id="BKKdW5sMqbaFEsKk65IG-60" value="" style="ellipse;whiteSpace=wrap;html=1;aspect=fixed;fillColor=#fff2cc;gradientColor=#ffd966;strokeColor=#d6b656;" vertex="1" parent="1">
          <mxGeometry x="443" y="1343" width="16" height="16" as="geometry" />
        </mxCell>
        <mxCell id="BKKdW5sMqbaFEsKk65IG-61" value="" style="endArrow=none;html=1;rounded=0;entryX=1;entryY=0.5;entryDx=0;entryDy=0;" edge="1" source="BKKdW5sMqbaFEsKk65IG-53" target="BKKdW5sMqbaFEsKk65IG-55" parent="1">
          <mxGeometry width="50" height="50" relative="1" as="geometry">
            <mxPoint x="449" y="1390" as="sourcePoint" />
            <mxPoint x="499" y="1340" as="targetPoint" />
          </mxGeometry>
        </mxCell>
        <mxCell id="BKKdW5sMqbaFEsKk65IG-62" value="" style="endArrow=none;html=1;rounded=0;entryX=1;entryY=1;entryDx=0;entryDy=0;" edge="1" source="BKKdW5sMqbaFEsKk65IG-60" target="BKKdW5sMqbaFEsKk65IG-52" parent="1">
          <mxGeometry width="50" height="50" relative="1" as="geometry">
            <mxPoint x="449" y="1390" as="sourcePoint" />
            <mxPoint x="499" y="1340" as="targetPoint" />
          </mxGeometry>
        </mxCell>
        <mxCell id="BKKdW5sMqbaFEsKk65IG-63" value="" style="ellipse;whiteSpace=wrap;html=1;aspect=fixed;fillColor=#d5e8d4;gradientColor=#97d077;strokeColor=#82b366;" vertex="1" parent="1">
          <mxGeometry x="575" y="1289" width="16" height="16" as="geometry" />
        </mxCell>
        <mxCell id="BKKdW5sMqbaFEsKk65IG-64" value="" style="ellipse;whiteSpace=wrap;html=1;aspect=fixed;fillColor=#d5e8d4;gradientColor=#97d077;strokeColor=#82b366;" vertex="1" parent="1">
          <mxGeometry x="575" y="1314" width="16" height="16" as="geometry" />
        </mxCell>
        <mxCell id="BKKdW5sMqbaFEsKk65IG-65" value="" style="ellipse;whiteSpace=wrap;html=1;aspect=fixed;fillColor=#fff2cc;gradientColor=#ffd966;strokeColor=#d6b656;" vertex="1" parent="1">
          <mxGeometry x="604" y="1310" width="16" height="16" as="geometry" />
        </mxCell>
        <mxCell id="BKKdW5sMqbaFEsKk65IG-66" value="" style="ellipse;whiteSpace=wrap;html=1;aspect=fixed;fillColor=#fff2cc;gradientColor=#ffd966;strokeColor=#d6b656;" vertex="1" parent="1">
          <mxGeometry x="552" y="1352" width="16" height="16" as="geometry" />
        </mxCell>
        <mxCell id="BKKdW5sMqbaFEsKk65IG-67" value="" style="ellipse;whiteSpace=wrap;html=1;aspect=fixed;direction=west;fillColor=#fff2cc;gradientColor=#ffd966;strokeColor=#d6b656;" vertex="1" parent="1">
          <mxGeometry x="511" y="1336" width="16" height="16" as="geometry" />
        </mxCell>
        <mxCell id="BKKdW5sMqbaFEsKk65IG-68" value="" style="ellipse;whiteSpace=wrap;html=1;aspect=fixed;fillColor=#fff2cc;gradientColor=#ffd966;strokeColor=#d6b656;" vertex="1" parent="1">
          <mxGeometry x="543" y="1310" width="16" height="16" as="geometry" />
        </mxCell>
        <mxCell id="BKKdW5sMqbaFEsKk65IG-69" value="" style="endArrow=none;html=1;rounded=0;entryX=0.5;entryY=1;entryDx=0;entryDy=0;" edge="1" source="BKKdW5sMqbaFEsKk65IG-64" target="BKKdW5sMqbaFEsKk65IG-63" parent="1">
          <mxGeometry width="50" height="50" relative="1" as="geometry">
            <mxPoint x="626" y="1393" as="sourcePoint" />
            <mxPoint x="676" y="1343" as="targetPoint" />
          </mxGeometry>
        </mxCell>
        <mxCell id="BKKdW5sMqbaFEsKk65IG-70" value="" style="endArrow=none;html=1;rounded=0;entryX=0;entryY=0.5;entryDx=0;entryDy=0;" edge="1" source="BKKdW5sMqbaFEsKk65IG-68" target="BKKdW5sMqbaFEsKk65IG-63" parent="1">
          <mxGeometry width="50" height="50" relative="1" as="geometry">
            <mxPoint x="626" y="1393" as="sourcePoint" />
            <mxPoint x="676" y="1343" as="targetPoint" />
          </mxGeometry>
        </mxCell>
        <mxCell id="BKKdW5sMqbaFEsKk65IG-71" value="" style="endArrow=none;html=1;rounded=0;entryX=1;entryY=0.5;entryDx=0;entryDy=0;" edge="1" source="BKKdW5sMqbaFEsKk65IG-65" target="BKKdW5sMqbaFEsKk65IG-63" parent="1">
          <mxGeometry width="50" height="50" relative="1" as="geometry">
            <mxPoint x="626" y="1393" as="sourcePoint" />
            <mxPoint x="676" y="1343" as="targetPoint" />
          </mxGeometry>
        </mxCell>
        <mxCell id="BKKdW5sMqbaFEsKk65IG-72" value="" style="endArrow=none;html=1;rounded=0;exitX=0;exitY=1;exitDx=0;exitDy=0;" edge="1" source="BKKdW5sMqbaFEsKk65IG-67" target="BKKdW5sMqbaFEsKk65IG-68" parent="1">
          <mxGeometry width="50" height="50" relative="1" as="geometry">
            <mxPoint x="530" y="1343" as="sourcePoint" />
            <mxPoint x="676" y="1343" as="targetPoint" />
          </mxGeometry>
        </mxCell>
        <mxCell id="BKKdW5sMqbaFEsKk65IG-73" value="" style="ellipse;whiteSpace=wrap;html=1;aspect=fixed;fillColor=#fff2cc;gradientColor=#ffd966;strokeColor=#d6b656;" vertex="1" parent="1">
          <mxGeometry x="620" y="1346" width="16" height="16" as="geometry" />
        </mxCell>
        <mxCell id="BKKdW5sMqbaFEsKk65IG-74" value="" style="endArrow=none;html=1;rounded=0;entryX=1;entryY=0.5;entryDx=0;entryDy=0;" edge="1" source="BKKdW5sMqbaFEsKk65IG-66" target="BKKdW5sMqbaFEsKk65IG-68" parent="1">
          <mxGeometry width="50" height="50" relative="1" as="geometry">
            <mxPoint x="626" y="1393" as="sourcePoint" />
            <mxPoint x="676" y="1343" as="targetPoint" />
          </mxGeometry>
        </mxCell>
        <mxCell id="BKKdW5sMqbaFEsKk65IG-75" value="" style="endArrow=none;html=1;rounded=0;entryX=1;entryY=1;entryDx=0;entryDy=0;" edge="1" source="BKKdW5sMqbaFEsKk65IG-73" target="BKKdW5sMqbaFEsKk65IG-65" parent="1">
          <mxGeometry width="50" height="50" relative="1" as="geometry">
            <mxPoint x="626" y="1393" as="sourcePoint" />
            <mxPoint x="676" y="1343" as="targetPoint" />
          </mxGeometry>
        </mxCell>
        <mxCell id="BKKdW5sMqbaFEsKk65IG-77" value="" style="endArrow=none;html=1;rounded=0;" edge="1" parent="1">
          <mxGeometry width="50" height="50" relative="1" as="geometry">
            <mxPoint x="270" y="1271" as="sourcePoint" />
            <mxPoint x="270" y="1251" as="targetPoint" />
          </mxGeometry>
        </mxCell>
        <mxCell id="BKKdW5sMqbaFEsKk65IG-78" value="" style="endArrow=none;html=1;rounded=0;" edge="1" parent="1">
          <mxGeometry width="50" height="50" relative="1" as="geometry">
            <mxPoint x="408" y="1272" as="sourcePoint" />
            <mxPoint x="408" y="1252" as="targetPoint" />
          </mxGeometry>
        </mxCell>
        <mxCell id="BKKdW5sMqbaFEsKk65IG-79" value="" style="endArrow=none;html=1;rounded=0;" edge="1" parent="1">
          <mxGeometry width="50" height="50" relative="1" as="geometry">
            <mxPoint x="556" y="1272" as="sourcePoint" />
            <mxPoint x="556" y="1251" as="targetPoint" />
          </mxGeometry>
        </mxCell>
        <mxCell id="BKKdW5sMqbaFEsKk65IG-80" value="Decision Tree 1" style="text;html=1;strokeColor=none;fillColor=none;align=center;verticalAlign=middle;whiteSpace=wrap;rounded=0;" vertex="1" parent="1">
          <mxGeometry x="195.5" y="1381" width="115" height="30" as="geometry" />
        </mxCell>
        <mxCell id="BKKdW5sMqbaFEsKk65IG-82" value="Decision Tree 2" style="text;html=1;strokeColor=none;fillColor=none;align=center;verticalAlign=middle;whiteSpace=wrap;rounded=0;" vertex="1" parent="1">
          <mxGeometry x="334" y="1381" width="115" height="30" as="geometry" />
        </mxCell>
        <mxCell id="BKKdW5sMqbaFEsKk65IG-83" value="Decision Tree n" style="text;html=1;strokeColor=none;fillColor=none;align=center;verticalAlign=middle;whiteSpace=wrap;rounded=0;" vertex="1" parent="1">
          <mxGeometry x="527" y="1381" width="115" height="30" as="geometry" />
        </mxCell>
        <mxCell id="BKKdW5sMqbaFEsKk65IG-89" value="" style="endArrow=none;html=1;rounded=0;entryX=0.417;entryY=1.039;entryDx=0;entryDy=0;entryPerimeter=0;" edge="1" parent="1" target="BKKdW5sMqbaFEsKk65IG-82">
          <mxGeometry width="50" height="50" relative="1" as="geometry">
            <mxPoint x="382" y="1480" as="sourcePoint" />
            <mxPoint x="421" y="1459" as="targetPoint" />
          </mxGeometry>
        </mxCell>
        <mxCell id="BKKdW5sMqbaFEsKk65IG-93" value="" style="endArrow=none;html=1;rounded=0;" edge="1" parent="1">
          <mxGeometry width="50" height="50" relative="1" as="geometry">
            <mxPoint x="256" y="1438" as="sourcePoint" />
            <mxPoint x="256" y="1413" as="targetPoint" />
          </mxGeometry>
        </mxCell>
        <mxCell id="BKKdW5sMqbaFEsKk65IG-94" value="" style="endArrow=none;html=1;rounded=0;entryX=0.417;entryY=1.067;entryDx=0;entryDy=0;entryPerimeter=0;" edge="1" parent="1" target="BKKdW5sMqbaFEsKk65IG-83">
          <mxGeometry width="50" height="50" relative="1" as="geometry">
            <mxPoint x="575" y="1435" as="sourcePoint" />
            <mxPoint x="575" y="1435" as="targetPoint" />
            <Array as="points">
              <mxPoint x="575" y="1427" />
            </Array>
          </mxGeometry>
        </mxCell>
        <mxCell id="BKKdW5sMqbaFEsKk65IG-95" value="" style="endArrow=none;html=1;rounded=0;" edge="1" parent="1">
          <mxGeometry width="50" height="50" relative="1" as="geometry">
            <mxPoint x="257" y="1437" as="sourcePoint" />
            <mxPoint x="575" y="1437" as="targetPoint" />
          </mxGeometry>
        </mxCell>
        <mxCell id="BKKdW5sMqbaFEsKk65IG-96" value="Major Voting" style="rounded=0;whiteSpace=wrap;html=1;fillColor=#e6d0de;gradientColor=#d5739d;strokeColor=#996185;" vertex="1" parent="1">
          <mxGeometry x="320" y="1453" width="123" height="27" as="geometry" />
        </mxCell>
        <mxCell id="BKKdW5sMqbaFEsKk65IG-98" value="" style="endArrow=none;html=1;rounded=0;entryX=0.519;entryY=0.997;entryDx=0;entryDy=0;entryPerimeter=0;exitX=0.5;exitY=0;exitDx=0;exitDy=0;exitPerimeter=0;" edge="1" parent="1" source="BKKdW5sMqbaFEsKk65IG-102" target="BKKdW5sMqbaFEsKk65IG-96">
          <mxGeometry width="50" height="50" relative="1" as="geometry">
            <mxPoint x="385" y="1561" as="sourcePoint" />
            <mxPoint x="386" y="1540" as="targetPoint" />
          </mxGeometry>
        </mxCell>
        <mxCell id="BKKdW5sMqbaFEsKk65IG-102" value="Final Result" style="rounded=0;whiteSpace=wrap;html=1;fillColor=#d5e8d4;gradientColor=#97d077;strokeColor=#82b366;" vertex="1" parent="1">
          <mxGeometry x="322" y="1498" width="122" height="24" as="geometry" />
        </mxCell>
        <mxCell id="BKKdW5sMqbaFEsKk65IG-104" value="" style="endArrow=none;dashed=1;html=1;dashPattern=1 3;strokeWidth=2;rounded=0;" edge="1" parent="1">
          <mxGeometry width="50" height="50" relative="1" as="geometry">
            <mxPoint x="464" y="1366" as="sourcePoint" />
            <mxPoint x="507" y="1366" as="targetPoint" />
          </mxGeometry>
        </mxCell>
      </root>
    </mxGraphModel>
  </diagram>
</mxfile>
